<?xml version="1.0" encoding="UTF-8" standalone="no"?>
<svg
   width="13.99"
   height="20"
   version="1.1"
   id="svg12"
   sodipodi:docname="mike.svg"
   inkscape:version="1.1 (c68e22c387, 2021-05-23)"
   xmlns:inkscape="http://www.inkscape.org/namespaces/inkscape"
   xmlns:sodipodi="http://sodipodi.sourceforge.net/DTD/sodipodi-0.dtd"
   xmlns="http://www.w3.org/2000/svg"
   xmlns:svg="http://www.w3.org/2000/svg">
  <defs
     id="defs16" />
  <sodipodi:namedview
     id="namedview14"
     pagecolor="#ffffff"
     bordercolor="#666666"
     borderopacity="1.0"
     inkscape:pageshadow="2"
     inkscape:pageopacity="0.0"
     inkscape:pagecheckerboard="0"
     showgrid="false"
     fit-margin-top="0"
     fit-margin-left="0"
     fit-margin-right="0"
     fit-margin-bottom="0"
     inkscape:zoom="16.916667"
     inkscape:cx="1.0640394"
     inkscape:cy="11.55665"
     inkscape:window-width="1920"
     inkscape:window-height="1001"
     inkscape:window-x="-9"
     inkscape:window-y="-9"
     inkscape:window-maximized="1"
     inkscape:current-layer="svg12" />
  <path
     fill="none"
     d="M -5,-2 H 19 V 22 H -5 Z"
     id="path2" />
  <g
     id="g837"
     transform="translate(-5,-2)">
    <path
       fill="#4285f4"
       d="m 12,15 c 1.66,0 2.99,-1.34 2.99,-3 L 15,5 C 15,3.34 13.66,2 12,2 10.34,2 9,3.34 9,5 v 7 c 0,1.66 1.34,3 3,3 z"
       id="path4" />
    <path
       fill="#34a853"
       d="m 11,18.92 h 2 V 22 h -2 z"
       id="path6" />
    <path
       fill="#f4b400"
       d="M 7,12 H 5 c 0,1.93 0.78,3.68 2.05,4.95 L 8.46,15.54 C 7.56,14.63 7,13.38 7,12 Z"
       id="path8" />
    <path
       fill="#ea4335"
       d="M 12,17 C 10.62,17 9.37,16.44 8.46,15.53 L 7.05,16.94 A 6.99,6.99 0 0 0 12.01,19 c 3.87,0 6.98,-3.14 6.98,-7 h -2 c 0,2.76 -2.23,5 -4.99,5 z"
       id="path10" />
  </g>
</svg>
