<?xml version="1.0" encoding="UTF-8" standalone="no"?>
<svg
   width="17.49"
   height="17.49"
   fill="#5f6368"
   version="1.1"
   id="svg4"
   sodipodi:docname="searchMobile.svg"
   inkscape:version="1.1 (c68e22c387, 2021-05-23)"
   xmlns:inkscape="http://www.inkscape.org/namespaces/inkscape"
   xmlns:sodipodi="http://sodipodi.sourceforge.net/DTD/sodipodi-0.dtd"
   xmlns="http://www.w3.org/2000/svg"
   xmlns:svg="http://www.w3.org/2000/svg">
  <defs
     id="defs8" />
  <sodipodi:namedview
     id="namedview6"
     pagecolor="#ffffff"
     bordercolor="#666666"
     borderopacity="1.0"
     inkscape:pageshadow="2"
     inkscape:pageopacity="0.0"
     inkscape:pagecheckerboard="0"
     showgrid="false"
     fit-margin-top="0"
     fit-margin-left="0"
     fit-margin-right="0"
     fit-margin-bottom="0"
     inkscape:zoom="33.833333"
     inkscape:cx="8.9852217"
     inkscape:cy="9"
     inkscape:window-width="1920"
     inkscape:window-height="1001"
     inkscape:window-x="-9"
     inkscape:window-y="-9"
     inkscape:window-maximized="1"
     inkscape:current-layer="svg4" />
  <path
     d="M 12.5,11 H 11.71 L 11.43,10.73 A 6.471,6.471 0 0 0 13,6.5 6.5,6.5 0 1 0 6.5,13 c 1.61,0 3.09,-0.59 4.23,-1.57 L 11,11.71 v 0.79 l 5,4.99 1.49,-1.49 z m -6,0 C 4.01,11 2,8.99 2,6.5 2,4.01 4.01,2 6.5,2 8.99,2 11,4.01 11,6.5 11,8.99 8.99,11 6.5,11 Z"
     id="path2"
     style="fill:#ffffff;fill-opacity:1" />
</svg>
